<svg width="23" height="22" viewBox="0 0 23 22" fill="none" xmlns="http://www.w3.org/2000/svg">
<path fill-rule="evenodd" clip-rule="evenodd" d="M0 17.1876C0 17.7346 0.227176 18.2592 0.631551 18.646C1.03593 19.0328 1.58438 19.2501 2.15625 19.2501H20.8438C21.4156 19.2501 21.9641 19.0328 22.3684 18.646C22.7728 18.2592 23 17.7346 23 17.1876V9.41888L11.6854 12.3023C11.5639 12.3333 11.4361 12.3333 11.3146 12.3023L0 9.41888V17.1876Z" fill="black"/>
<path fill-rule="evenodd" clip-rule="evenodd" d="M0 6.1875C0 5.64049 0.227176 5.11589 0.631551 4.72909C1.03593 4.3423 1.58438 4.125 2.15625 4.125H20.8438C21.4156 4.125 21.9641 4.3423 22.3684 4.72909C22.7728 5.11589 23 5.64049 23 6.1875V8.0905L12.0549 10.8818C11.6913 10.9744 11.3087 10.9744 10.9451 10.8818L0 8.0905V6.1875ZM7.1875 3.4375C7.1875 2.89049 7.41468 2.36589 7.81905 1.97909C8.22343 1.5923 8.77188 1.375 9.34375 1.375H13.6562C14.2281 1.375 14.7766 1.5923 15.1809 1.97909C15.5853 2.36589 15.8125 2.89049 15.8125 3.4375V4.125H14.375V3.4375C14.375 3.25516 14.2993 3.0803 14.1645 2.95136C14.0297 2.82243 13.8469 2.75 13.6562 2.75H9.34375C9.15313 2.75 8.97031 2.82243 8.83552 2.95136C8.70073 3.0803 8.625 3.25516 8.625 3.4375V4.125H7.1875V3.4375Z" fill="black"/>
</svg>
