<svg width="23" height="22" viewBox="0 0 23 22" fill="none" xmlns="http://www.w3.org/2000/svg">
<g clip-path="url(#clip0_284_878)">
<path fill-rule="evenodd" clip-rule="evenodd" d="M3.29483 1.375H19.7948C20.1595 1.375 20.5092 1.51987 20.7671 1.77773C21.025 2.03559 21.1698 2.38533 21.1698 2.75V18.6808L18.4198 15.9308C17.9042 15.415 17.2049 15.1252 16.4756 15.125H3.29483C2.93016 15.125 2.58042 14.9801 2.32256 14.7223C2.0647 14.4644 1.91983 14.1147 1.91983 13.75V2.75C1.91983 2.38533 2.0647 2.03559 2.32256 1.77773C2.58042 1.51987 2.93016 1.375 3.29483 1.375V1.375ZM19.7948 0C20.5242 0 21.2236 0.289731 21.7394 0.805456C22.2551 1.32118 22.5448 2.02065 22.5448 2.75V20.3404C22.5448 20.4764 22.5044 20.6094 22.4288 20.7225C22.3532 20.8355 22.2457 20.9236 22.12 20.9756C21.9942 21.0276 21.8559 21.0411 21.7225 21.0144C21.5891 20.9877 21.4667 20.9221 21.3706 20.8258L17.4477 16.9029C17.1899 16.645 16.8402 16.5001 16.4756 16.5H3.29483C2.56548 16.5 1.86601 16.2103 1.35029 15.6945C0.834562 15.1788 0.54483 14.4793 0.54483 13.75V2.75C0.54483 2.02065 0.834562 1.32118 1.35029 0.805456C1.86601 0.289731 2.56548 0 3.29483 0L19.7948 0Z" fill="#B0B0B0"/>
<path fill-rule="evenodd" clip-rule="evenodd" d="M4.66983 4.8125C4.66983 4.63016 4.74226 4.4553 4.87119 4.32636C5.00013 4.19743 5.17499 4.125 5.35733 4.125H17.7323C17.9147 4.125 18.0895 4.19743 18.2185 4.32636C18.3474 4.4553 18.4198 4.63016 18.4198 4.8125C18.4198 4.99484 18.3474 5.1697 18.2185 5.29864C18.0895 5.42757 17.9147 5.5 17.7323 5.5H5.35733C5.17499 5.5 5.00013 5.42757 4.87119 5.29864C4.74226 5.1697 4.66983 4.99484 4.66983 4.8125ZM4.66983 8.25C4.66983 8.06766 4.74226 7.8928 4.87119 7.76386C5.00013 7.63493 5.17499 7.5625 5.35733 7.5625H17.7323C17.9147 7.5625 18.0895 7.63493 18.2185 7.76386C18.3474 7.8928 18.4198 8.06766 18.4198 8.25C18.4198 8.43234 18.3474 8.6072 18.2185 8.73614C18.0895 8.86507 17.9147 8.9375 17.7323 8.9375H5.35733C5.17499 8.9375 5.00013 8.86507 4.87119 8.73614C4.74226 8.6072 4.66983 8.43234 4.66983 8.25ZM4.66983 11.6875C4.66983 11.5052 4.74226 11.3303 4.87119 11.2014C5.00013 11.0724 5.17499 11 5.35733 11H12.2323C12.4147 11 12.5895 11.0724 12.7185 11.2014C12.8474 11.3303 12.9198 11.5052 12.9198 11.6875C12.9198 11.8698 12.8474 12.0447 12.7185 12.1736C12.5895 12.3026 12.4147 12.375 12.2323 12.375H5.35733C5.17499 12.375 5.00013 12.3026 4.87119 12.1736C4.74226 12.0447 4.66983 11.8698 4.66983 11.6875Z" fill="#B0B0B0"/>
</g>
<defs>
<clipPath id="clip0_284_878">
<rect width="22" height="22" fill="white" transform="translate(0.54483)"/>
</clipPath>
</defs>
</svg>
