<svg width="22" height="22" viewBox="0 0 22 22" fill="none" xmlns="http://www.w3.org/2000/svg">
<g clip-path="url(#clip0_284_877)">
<path fill-rule="evenodd" clip-rule="evenodd" d="M11.0028 3.77747L10.0169 2.76409C7.70277 0.385343 3.45952 1.20622 1.92777 4.19684C1.20864 5.60347 1.04639 7.63434 2.35952 10.2262C3.62452 12.7218 6.25627 15.7111 11.0028 18.9671C15.7493 15.7111 18.3796 12.7218 19.646 10.2262C20.9591 7.63297 20.7983 5.60347 20.0778 4.19684C18.546 1.20622 14.3028 0.383968 11.9886 2.76272L11.0028 3.77747ZM11.0028 20.624C-10.0801 6.69247 4.51139 -4.18103 10.7608 1.57059C10.8433 1.64622 10.9244 1.72459 11.0028 1.80572C11.0803 1.72467 11.1611 1.64669 11.2448 1.57197C17.4928 -4.18378 32.0856 6.69109 11.0028 20.624Z" fill="#B0B0B0"/>
</g>
<defs>
<clipPath id="clip0_284_877">
<rect width="22" height="22" fill="white"/>
</clipPath>
</defs>
</svg>
