<svg width="25" height="20" viewBox="0 0 25 20" fill="none" xmlns="http://www.w3.org/2000/svg">
<path d="M0 3.33333C0 2.44928 0.32924 1.60143 0.915291 0.976311C1.50134 0.351189 2.2962 0 3.125 0H21.875C22.7038 0 23.4987 0.351189 24.0847 0.976311C24.6708 1.60143 25 2.44928 25 3.33333V16.6667C25 17.5507 24.6708 18.3986 24.0847 19.0237C23.4987 19.6488 22.7038 20 21.875 20H3.125C2.2962 20 1.50134 19.6488 0.915291 19.0237C0.32924 18.3986 0 17.5507 0 16.6667V3.33333ZM3.125 1.66667C2.7106 1.66667 2.31317 1.84226 2.02015 2.15482C1.72712 2.46738 1.5625 2.89131 1.5625 3.33333V3.695L12.5 10.695L23.4375 3.695V3.33333C23.4375 2.89131 23.2729 2.46738 22.9799 2.15482C22.6868 1.84226 22.2894 1.66667 21.875 1.66667H3.125ZM23.4375 5.63833L16.0812 10.3467L23.4375 15.175V5.63833ZM23.3844 17.0983L14.5719 11.3133L12.5 12.6383L10.4281 11.3133L1.61563 17.0967C1.70442 17.4513 1.90049 17.7648 2.17342 17.9884C2.44635 18.212 2.78085 18.3333 3.125 18.3333H21.875C22.2189 18.3334 22.5533 18.2124 22.8262 17.9891C23.0991 17.7658 23.2953 17.4527 23.3844 17.0983ZM1.5625 15.175L8.91875 10.3467L1.5625 5.63833V15.175Z" fill="black"/>
</svg>
