<svg width="23" height="23" viewBox="0 0 23 23" fill="none" xmlns="http://www.w3.org/2000/svg">
<path d="M9.34375 15.8052V20.8436C9.34375 21.0343 9.26803 21.2171 9.13323 21.3519C8.99844 21.4867 8.81563 21.5624 8.625 21.5624H2.875C2.68438 21.5624 2.50156 21.4867 2.36677 21.3519C2.23198 21.2171 2.15625 21.0343 2.15625 20.8436V10.7811C2.15608 10.6867 2.17453 10.5931 2.21054 10.5058C2.24655 10.4185 2.29942 10.3391 2.36613 10.2723L10.9911 1.64726C11.0579 1.58032 11.1372 1.52722 11.2245 1.49098C11.3118 1.45475 11.4055 1.4361 11.5 1.4361C11.5945 1.4361 11.6882 1.45475 11.7755 1.49098C11.8628 1.52722 11.9421 1.58032 12.0089 1.64726L20.6339 10.2723C20.7006 10.3391 20.7534 10.4185 20.7895 10.5058C20.8255 10.5931 20.8439 10.6867 20.8438 10.7811V20.8436C20.8438 21.0343 20.768 21.2171 20.6332 21.3519C20.4984 21.4867 20.3156 21.5624 20.125 21.5624H14.375C14.1844 21.5624 14.0016 21.4867 13.8668 21.3519C13.732 21.2171 13.6563 21.0343 13.6563 20.8436V15.8124C13.6563 15.453 13.2969 15.0936 12.9375 15.0936H10.0625C9.70313 15.0936 9.34375 15.453 9.34375 15.8052Z" fill="black"/>
<path fill-rule="evenodd" clip-rule="evenodd" d="M18.6875 3.59375V8.625L15.8125 5.75V3.59375C15.8125 3.40313 15.8882 3.22031 16.023 3.08552C16.1578 2.95073 16.3406 2.875 16.5312 2.875H17.9688C18.1594 2.875 18.3422 2.95073 18.477 3.08552C18.6118 3.22031 18.6875 3.40313 18.6875 3.59375Z" fill="black"/>
</svg>
