<svg width="23" height="22" viewBox="0 0 23 22" fill="none" xmlns="http://www.w3.org/2000/svg">
<path fill-rule="evenodd" clip-rule="evenodd" d="M6.46875 4.125C6.46875 3.21332 6.84738 2.33898 7.52134 1.69432C8.19529 1.04966 9.10938 0.6875 10.0625 0.6875C11.0156 0.6875 11.9297 1.04966 12.6037 1.69432C13.2776 2.33898 13.6562 3.21332 13.6562 4.125V16.5C13.6562 17.047 13.4291 17.5716 13.0247 17.9584C12.6203 18.3452 12.0719 18.5625 11.5 18.5625C10.9281 18.5625 10.3797 18.3452 9.9753 17.9584C9.57093 17.5716 9.34375 17.047 9.34375 16.5V6.875C9.34375 6.69266 9.41948 6.5178 9.55427 6.38886C9.68906 6.25993 9.87188 6.1875 10.0625 6.1875C10.2531 6.1875 10.4359 6.25993 10.5707 6.38886C10.7055 6.5178 10.7812 6.69266 10.7812 6.875V16.5C10.7812 16.6823 10.857 16.8572 10.9918 16.9861C11.1266 17.1151 11.3094 17.1875 11.5 17.1875C11.6906 17.1875 11.8734 17.1151 12.0082 16.9861C12.143 16.8572 12.2188 16.6823 12.2188 16.5V4.125C12.2188 3.85415 12.163 3.58595 12.0546 3.33572C11.9463 3.08548 11.7874 2.85811 11.5872 2.66659C11.387 2.47507 11.1493 2.32315 10.8877 2.2195C10.6261 2.11585 10.3457 2.0625 10.0625 2.0625C9.77934 2.0625 9.49895 2.11585 9.23734 2.2195C8.97573 2.32315 8.73803 2.47507 8.5378 2.66659C8.33757 2.85811 8.17875 3.08548 8.07038 3.33572C7.96202 3.58595 7.90625 3.85415 7.90625 4.125V16.5C7.90625 17.4117 8.28488 18.286 8.95884 18.9307C9.63279 19.5753 10.5469 19.9375 11.5 19.9375C12.4531 19.9375 13.3672 19.5753 14.0412 18.9307C14.7151 18.286 15.0938 17.4117 15.0938 16.5V6.875C15.0938 6.69266 15.1695 6.5178 15.3043 6.38886C15.4391 6.25993 15.6219 6.1875 15.8125 6.1875C16.0031 6.1875 16.1859 6.25993 16.3207 6.38886C16.4555 6.5178 16.5312 6.69266 16.5312 6.875V16.5C16.5312 17.7764 16.0012 19.0004 15.0576 19.903C14.1141 20.8055 12.8344 21.3125 11.5 21.3125C10.1656 21.3125 8.88591 20.8055 7.94237 19.903C6.99883 19.0004 6.46875 17.7764 6.46875 16.5V4.125Z" fill="black"/>
</svg>
