<svg width="23" height="23" viewBox="0 0 23 23" fill="none" xmlns="http://www.w3.org/2000/svg">
<path fill-rule="evenodd" clip-rule="evenodd" d="M0.071875 5.11031C0.216801 4.47529 0.573067 3.90829 1.08232 3.50219C1.59158 3.09609 2.22365 2.87496 2.875 2.875H20.125C20.7764 2.87496 21.4084 3.09609 21.9177 3.50219C22.4269 3.90829 22.7832 4.47529 22.9281 5.11031L11.5 12.0951L0.071875 5.11031ZM0 6.75194V16.9639L8.34181 11.8493L0 6.75194ZM9.71894 12.6931L0.274562 18.4819C0.507907 18.974 0.876195 19.3896 1.33656 19.6805C1.79693 19.9714 2.33044 20.1255 2.875 20.125H20.125C20.6695 20.1251 21.2028 19.9706 21.6629 19.6795C22.123 19.3884 22.491 18.9726 22.724 18.4805L13.2796 12.6917L11.5 13.7799L9.71894 12.6917V12.6931ZM14.6582 11.8508L23 16.9639V6.75194L14.6582 11.8493V11.8508Z" fill="black"/>
</svg>
